<svg width="1584" height="396" viewBox="0 0 1584 396" fill="none" xmlns="http://www.w3.org/2000/svg">
<rect width="1584" height="396" fill="#F5F5F5"/>
<g id="Awesome banner" clip-path="url(#clip0_0_1)">
<rect width="1584" height="396" fill="url(#paint0_linear_0_1)"/>
<ellipse id="Ellipse 2" cx="323" cy="64" rx="285" ry="288" fill="url(#paint1_linear_0_1)" fill-opacity="0.1"/>
<g id="copyright">
<path d="M75.95 334.52L72.30 334.52L72.30 311.16L77.20 311.16L83.70 330.04Q83.60 329.02 83.50 327.62Q83.41 326.23 83.33 324.79Q83.25 323.35 83.25 322.23L83.25 311.16L86.90 311.16L86.90 334.52L82 334.52L75.57 315.64Q75.63 316.57 75.73 317.88Q75.82 319.19 75.89 320.57Q75.95 321.94 75.95 323.10L75.95 334.52M98.80 334.84Q96.46 334.84 94.67 333.96Q92.88 333.08 91.89 331.53Q90.90 329.98 90.90 327.93Q90.90 325.78 92.13 324.18Q93.36 322.58 95.34 322.17L95.34 322.10Q93.65 321.75 92.61 320.38Q91.57 319 91.57 317.11Q91.57 315.26 92.48 313.85Q93.39 312.44 95.02 311.64Q96.66 310.84 98.80 310.84Q100.94 310.84 102.59 311.64Q104.24 312.44 105.15 313.85Q106.06 315.26 106.06 317.11Q106.06 319 105.01 320.38Q103.95 321.75 102.26 322.10L102.26 322.17Q104.24 322.58 105.47 324.18Q106.70 325.78 106.70 327.93Q106.70 329.98 105.71 331.53Q104.72 333.08 102.93 333.96Q101.14 334.84 98.80 334.84M98.80 320.73Q100.30 320.73 101.23 319.82Q102.16 318.90 102.16 317.46Q102.16 315.99 101.23 315.08Q100.30 314.17 98.80 314.17Q97.30 314.17 96.37 315.08Q95.44 315.99 95.44 317.46Q95.44 318.90 96.37 319.82Q97.30 320.73 98.80 320.73M98.80 331.45Q100.56 331.45 101.68 330.42Q102.80 329.40 102.80 327.74Q102.80 326.04 101.68 325Q100.56 323.96 98.80 323.96Q97.04 323.96 95.92 325Q94.80 326.04 94.80 327.74Q94.80 329.40 95.92 330.42Q97.04 331.45 98.80 331.45M114.35 334.52L110.70 334.52L110.70 311.16L115.60 311.16L122.10 330.04Q122 329.02 121.90 327.62Q121.81 326.23 121.73 324.79Q121.65 323.35 121.65 322.23L121.65 311.16L125.30 311.16L125.30 334.52L120.40 334.52L113.97 315.64Q114.03 316.57 114.13 317.88Q114.22 319.19 114.29 320.57Q114.35 321.94 114.35 323.10" fill="white" fill-opacity="0.9"/>
<path d="M161.48 325.24L151.24 325.24L151.24 322.68L161.48 322.68" fill="white" fill-opacity="0.9"/>
<path d="M195.02 334.84Q191.82 334.84 189.96 333.05Q188.11 331.26 188.11 328.12L188.11 317.56Q188.11 314.42 189.96 312.63Q191.82 310.84 195.02 310.84Q198.15 310.84 200.01 312.65Q201.87 314.46 201.87 317.56L198.99 317.56Q198.99 315.58 197.95 314.50Q196.91 313.43 195.02 313.43Q193.13 313.43 192.06 314.50Q190.99 315.58 190.99 317.56L190.99 328.12Q190.99 330.10 192.06 331.18Q193.13 332.25 195.02 332.25Q196.91 332.25 197.95 331.18Q198.99 330.10 198.99 328.12L201.87 328.12Q201.87 331.22 200.01 333.03Q198.15 334.84 195.02 334.84" fill="white" fill-opacity="0.9"/>
<path d="M213.96 334.84Q210.83 334.84 209 333.02Q207.18 331.19 207.18 327.80L207.18 317.88Q207.18 314.49 209 312.66Q210.83 310.84 213.96 310.84Q217.10 310.84 218.92 312.66Q220.75 314.49 220.75 317.85L220.75 327.80Q220.75 331.19 218.92 333.02Q217.10 334.84 213.96 334.84M213.96 332.25Q215.85 332.25 216.86 331.18Q217.87 330.10 217.87 328.12L217.87 317.56Q217.87 315.58 216.86 314.50Q215.85 313.43 213.96 313.43Q212.11 313.43 211.08 314.50Q210.06 315.58 210.06 317.56L210.06 328.12Q210.06 330.10 211.08 331.18Q212.11 332.25 213.96 332.25" fill="white" fill-opacity="0.9"/>
<path d="M228.65 334.52L225.87 334.52L225.87 311.16L230.12 311.16L233.10 321.27L236.20 311.16L240.46 311.16L240.46 334.52L237.67 334.52L237.67 323.48Q237.67 321.91 237.72 319.88Q237.77 317.85 237.87 315.77Q237.96 313.69 238.09 312.02L234.31 324.09L231.82 324.09L228.20 312.31Q228.46 314.68 228.55 317.50Q228.65 320.31 228.65 323.48" fill="white" fill-opacity="0.9"/>
<path d="M247.85 334.52L245.07 334.52L245.07 311.16L249.32 311.16L252.30 321.27L255.40 311.16L259.66 311.16L259.66 334.52L256.87 334.52L256.87 323.48Q256.87 321.91 256.92 319.88Q256.97 317.85 257.07 315.77Q257.16 313.69 257.29 312.02L253.51 324.09L251.02 324.09L247.40 312.31Q247.66 314.68 247.75 317.50Q247.85 320.31 247.85 323.48" fill="white" fill-opacity="0.9"/>
<path d="M271.56 334.84Q268.30 334.84 266.57 333.03Q264.84 331.22 264.84 328.12L264.84 311.16L267.72 311.16L267.72 328.12Q267.72 330.04 268.67 331.16Q269.61 332.28 271.56 332.28Q273.48 332.28 274.44 331.16Q275.40 330.04 275.40 328.12L275.40 311.16L278.28 311.16L278.28 328.12Q278.28 331.26 276.57 333.05Q274.86 334.84 271.56 334.84" fill="white" fill-opacity="0.9"/>
<path d="M286.83 334.52L284.04 334.52L284.04 311.16L287.88 311.16L295.02 331.16Q294.95 330.36 294.87 329.19Q294.79 328.02 294.75 326.73Q294.70 325.43 294.70 324.28L294.70 311.16L297.48 311.16L297.48 334.52L293.64 334.52L286.54 314.52Q286.60 315.29 286.67 316.46Q286.73 317.62 286.78 318.92Q286.83 320.22 286.83 321.40" fill="white" fill-opacity="0.9"/>
<path d="M316.20 334.52L303.72 334.52L303.72 331.90L308.49 331.90L308.49 313.78L303.72 313.78L303.72 311.16L316.20 311.16L316.20 313.78L311.43 313.78L311.43 331.90L316.20 331.90" fill="white" fill-opacity="0.9"/>
<path d="M330.60 334.52L327.72 334.52L327.72 313.78L321.32 313.78L321.32 311.16L337 311.16L337 313.78L330.60 313.78" fill="white" fill-opacity="0.9"/>
<path d="M349.80 334.52L346.92 334.52L346.92 325.78L339.88 311.16L342.95 311.16L347.50 320.76Q347.88 321.56 348.11 322.12Q348.33 322.68 348.39 322.94Q348.46 322.68 348.70 322.12Q348.94 321.56 349.32 320.76L353.87 311.16L356.84 311.16L349.80 325.78" fill="white" fill-opacity="0.9"/>
<path d="M382.83 334.52L380.04 334.52L380.04 311.16L383.88 311.16L391.02 331.16Q390.95 330.36 390.87 329.19Q390.79 328.02 390.75 326.73Q390.70 325.43 390.70 324.28L390.70 311.16L393.48 311.16L393.48 334.52L389.64 334.52L382.54 314.52Q382.60 315.29 382.67 316.46Q382.73 317.62 382.78 318.92Q382.83 320.22 382.83 321.40" fill="white" fill-opacity="0.9"/>
<path d="M405.96 334.84Q402.83 334.84 401 333.02Q399.18 331.19 399.18 327.80L399.18 317.88Q399.18 314.49 401 312.66Q402.83 310.84 405.96 310.84Q409.10 310.84 410.92 312.66Q412.75 314.49 412.75 317.85L412.75 327.80Q412.75 331.19 410.92 333.02Q409.10 334.84 405.96 334.84M405.96 332.25Q407.85 332.25 408.86 331.18Q409.87 330.10 409.87 328.12L409.87 317.56Q409.87 315.58 408.86 314.50Q407.85 313.43 405.96 313.43Q404.11 313.43 403.08 314.50Q402.06 315.58 402.06 317.56L402.06 328.12Q402.06 330.10 403.08 331.18Q404.11 332.25 405.96 332.25" fill="white" fill-opacity="0.9"/>
<path d="M424.55 334.52L418.51 334.52L418.51 311.16L424.55 311.16Q426.83 311.16 428.47 312.02Q430.12 312.89 431.03 314.46Q431.95 316.02 431.95 318.17L431.95 327.48Q431.95 329.62 431.03 331.21Q430.12 332.79 428.47 333.66Q426.83 334.52 424.55 334.52M421.39 313.72L421.39 331.96L424.55 331.96Q426.67 331.96 427.87 330.78Q429.07 329.59 429.07 327.48L429.07 318.17Q429.07 316.09 427.87 314.90Q426.67 313.72 424.55 313.72" fill="white" fill-opacity="0.9"/>
<path d="M451.40 334.52L437.96 334.52L437.96 311.16L451.40 311.16L451.40 313.78L440.81 313.78L440.81 321.02L450.28 321.02L450.28 323.58L440.81 323.58L440.81 331.90L451.40 331.90" fill="white" fill-opacity="0.9"/>
<path d="M463.69 334.84Q460.30 334.84 458.28 333.05Q456.27 331.26 456.27 328.12L459.15 328.12Q459.15 330.07 460.39 331.18Q461.64 332.28 463.69 332.28Q465.67 332.28 466.86 331.13Q468.04 329.98 468.04 328.12Q468.04 326.71 467.29 325.67Q466.54 324.63 465.13 324.25L461.58 323.26Q459.37 322.62 458.11 320.97Q456.84 319.32 456.84 317.08Q456.84 315.22 457.67 313.82Q458.51 312.41 460.01 311.62Q461.51 310.84 463.47 310.84Q465.45 310.84 466.97 311.62Q468.49 312.41 469.35 313.80Q470.22 315.19 470.22 317.02L467.34 317.02Q467.34 315.42 466.25 314.41Q465.16 313.40 463.47 313.40Q461.77 313.40 460.71 314.41Q459.66 315.42 459.66 317.02Q459.66 318.30 460.35 319.21Q461.03 320.12 462.28 320.47L465.93 321.50Q468.27 322.14 469.56 323.91Q470.86 325.69 470.86 328.12Q470.86 331.19 468.91 333.02Q466.95 334.84 463.69 334.84" fill="white" fill-opacity="0.9"/>
</g>
<path d="M81.88 197.64L72.52 197.64L72.52 195.67L76.10 195.67L76.10 182.09L72.52 182.09L72.52 180.12L81.88 180.12L81.88 182.09L78.30 182.09L78.30 195.67L81.88 195.67" fill="white" fill-opacity="0.7"/>
<path d="M91.79 197.88Q89.39 197.88 88 196.54Q86.61 195.19 86.61 192.84L86.61 184.92Q86.61 182.57 88 181.22Q89.39 179.88 91.79 179.88Q94.14 179.88 95.54 181.24Q96.93 182.59 96.93 184.92L94.77 184.92Q94.77 183.43 93.99 182.63Q93.21 181.82 91.79 181.82Q90.38 181.82 89.57 182.63Q88.77 183.43 88.77 184.92L88.77 192.84Q88.77 194.33 89.57 195.13Q90.38 195.94 91.79 195.94Q93.21 195.94 93.99 195.13Q94.77 194.33 94.77 192.84L96.93 192.84Q96.93 195.17 95.54 196.52Q94.14 197.88 91.79 197.88" fill="white" fill-opacity="0.7"/>
<path d="M110.68 197.64L101.32 197.64L101.32 195.67L104.90 195.67L104.90 182.09L101.32 182.09L101.32 180.12L110.68 180.12L110.68 182.09L107.10 182.09L107.10 195.67L110.68 195.67" fill="white" fill-opacity="0.7"/>
<path d="M120.59 197.88Q118.19 197.88 116.80 196.54Q115.41 195.19 115.41 192.84L115.41 184.92Q115.41 182.57 116.80 181.22Q118.19 179.88 120.59 179.88Q122.94 179.88 124.34 181.24Q125.73 182.59 125.73 184.92L123.57 184.92Q123.57 183.43 122.79 182.63Q122.01 181.82 120.59 181.82Q119.18 181.82 118.37 182.63Q117.57 183.43 117.57 184.92L117.57 192.84Q117.57 194.33 118.37 195.13Q119.18 195.94 120.59 195.94Q122.01 195.94 122.79 195.13Q123.57 194.33 123.57 192.84L125.73 192.84Q125.73 195.17 124.34 196.52Q122.94 197.88 120.59 197.88" fill="white" fill-opacity="0.7"/>
<path d="M139.48 197.64L130.12 197.64L130.12 195.67L133.70 195.67L133.70 182.09L130.12 182.09L130.12 180.12L139.48 180.12L139.48 182.09L135.90 182.09L135.90 195.67L139.48 195.67" fill="white" fill-opacity="0.7"/>
<path d="M160.77 197.64L158.61 197.64L158.61 180.12L164.25 180.12Q166.70 180.12 168.15 181.52Q169.60 182.93 169.60 185.28Q169.60 187.63 168.15 189.04Q166.70 190.44 164.25 190.44L160.77 190.44L160.77 197.64M160.77 182.06L160.77 188.50L164.25 188.50Q165.66 188.50 166.52 187.62Q167.37 186.74 167.37 185.28Q167.37 183.79 166.52 182.93Q165.66 182.06 164.25 182.06" fill="white" fill-opacity="0.7"/>
<path d="M175.65 197.64L173.49 197.64L173.49 184.44L175.65 184.44L175.65 186.96L175.70 186.96Q175.86 185.69 176.78 184.94Q177.69 184.20 179.22 184.20Q181.29 184.20 182.40 185.44Q183.52 186.67 183.52 188.95L183.52 190.08L181.36 190.08L181.36 188.95Q181.36 186.07 178.55 186.07Q177.14 186.07 176.39 186.89Q175.65 187.70 175.65 189.24" fill="white" fill-opacity="0.7"/>
<path d="M192.38 197.88Q190.10 197.88 188.73 196.52Q187.36 195.17 187.36 192.84L187.36 184.44L189.52 184.44L189.52 192.84Q189.52 194.28 190.29 195.13Q191.06 195.98 192.38 195.98Q193.72 195.98 194.50 195.13Q195.28 194.28 195.28 192.84L195.28 184.44L197.44 184.44L197.44 192.84Q197.44 195.17 196.05 196.52Q194.66 197.88 192.38 197.88" fill="white" fill-opacity="0.7"/>
<path d="M206.03 197.88Q204.06 197.88 202.88 196.56Q201.69 195.24 201.69 192.98L201.69 189.12Q201.69 186.84 202.86 185.52Q204.04 184.20 206.03 184.20Q207.52 184.20 208.49 184.94Q209.46 185.69 209.66 186.96L209.68 186.96L209.63 183.96L209.63 180.12L211.79 180.12L211.79 197.64L209.63 197.64L209.63 195.12L209.61 195.12Q209.44 196.42 208.48 197.15Q207.52 197.88 206.03 197.88M206.75 196.01Q208.10 196.01 208.86 195.17Q209.63 194.33 209.63 192.84L209.63 189.24Q209.63 187.75 208.86 186.91Q208.10 186.07 206.75 186.07Q205.38 186.07 204.62 186.78Q203.85 187.49 203.85 189.12L203.85 192.96Q203.85 194.57 204.62 195.29Q205.38 196.01 206.75 196.01" fill="white" fill-opacity="0.7"/>
<path d="M221.20 197.88Q218.87 197.88 217.44 196.48Q216.02 195.07 216.02 192.60L216.02 189.48Q216.02 187.01 217.44 185.60Q218.87 184.20 221.20 184.20Q222.76 184.20 223.92 184.82Q225.09 185.45 225.74 186.58Q226.38 187.70 226.38 189.24L226.38 191.59L218.13 191.59L218.13 192.84Q218.13 194.30 218.97 195.16Q219.81 196.01 221.20 196.01Q222.40 196.01 223.18 195.54Q223.96 195.07 224.13 194.28L226.29 194.28Q226.07 195.94 224.68 196.91Q223.29 197.88 221.20 197.88M218.13 189.24L218.13 189.91L224.27 189.91L224.27 189.24Q224.27 187.68 223.47 186.83Q222.66 185.98 221.20 185.98Q219.74 185.98 218.93 186.83Q218.13 187.68 218.13 189.24" fill="white" fill-opacity="0.7"/>
<path d="M232.77 197.64L230.61 197.64L230.61 184.44L232.77 184.44L232.77 186.96L232.79 186.96Q232.96 185.64 233.87 184.92Q234.78 184.20 236.30 184.20Q238.29 184.20 239.46 185.42Q240.64 186.65 240.64 188.76L240.64 197.64L238.48 197.64L238.48 189.14Q238.48 187.63 237.72 186.83Q236.97 186.02 235.67 186.02Q234.33 186.02 233.55 186.86Q232.77 187.70 232.77 189.24" fill="white" fill-opacity="0.7"/>
<path d="M255.16 197.64L251.32 197.64Q249.69 197.64 248.70 196.69Q247.72 195.74 247.72 194.16L247.72 186.41L243.93 186.41L243.93 184.44L247.72 184.44L247.72 180.72L249.88 180.72L249.88 184.44L255.28 184.44L255.28 186.41L249.88 186.41L249.88 194.16Q249.88 194.83 250.28 195.25Q250.67 195.67 251.32 195.67L255.16 195.67" fill="white" fill-opacity="0.7"/>
<path d="M270.52 197.64L259.24 197.64L259.24 195.67L263.92 195.67L263.92 186.41L259.72 186.41L259.72 184.44L266.08 184.44L266.08 195.67L270.52 195.67L270.52 197.64M264.76 182.06Q263.97 182.06 263.51 181.66Q263.06 181.25 263.06 180.55Q263.06 179.83 263.51 179.41Q263.97 178.99 264.76 178.99Q265.55 178.99 266.01 179.41Q266.46 179.83 266.46 180.55Q266.46 181.25 266.01 181.66Q265.55 182.06 264.76 182.06" fill="white" fill-opacity="0.7"/>
<path d="M277.65 197.88Q275.61 197.88 274.41 196.74Q273.21 195.60 273.21 193.75Q273.21 192.53 273.76 191.62Q274.31 190.70 275.30 190.19Q276.28 189.67 277.55 189.67L281.63 189.67L281.63 188.64Q281.63 186.07 278.82 186.07Q277.58 186.07 276.81 186.53Q276.04 186.98 275.99 187.80L273.83 187.80Q273.95 186.24 275.28 185.22Q276.62 184.20 278.82 184.20Q281.22 184.20 282.51 185.35Q283.79 186.50 283.79 188.57L283.79 197.64L281.66 197.64L281.66 195.24L281.61 195.24Q281.42 196.46 280.38 197.17Q279.35 197.88 277.65 197.88M278.18 196.06Q279.76 196.06 280.70 195.29Q281.63 194.52 281.63 193.20L281.63 191.35L277.79 191.35Q276.74 191.35 276.08 191.99Q275.42 192.62 275.42 193.68Q275.42 194.78 276.15 195.42Q276.88 196.06 278.18 196.06" fill="white" fill-opacity="0.7"/>
<path d="M299.20 197.64L295.12 197.64Q293.37 197.64 292.32 196.62Q291.28 195.60 291.28 193.92L291.28 182.09L286.72 182.09L286.72 180.12L293.44 180.12L293.44 193.92Q293.44 194.74 293.90 195.20Q294.35 195.67 295.12 195.67L299.20 195.67" fill="white" fill-opacity="0.7"/>
<path d="M328 197.64L317.92 197.64L317.92 180.12L320.08 180.12L320.08 195.67L328 195.67" fill="white" fill-opacity="0.7"/>
<path d="M342.52 197.64L331.24 197.64L331.24 195.67L335.92 195.67L335.92 186.41L331.72 186.41L331.72 184.44L338.08 184.44L338.08 195.67L342.52 195.67L342.52 197.64M336.76 182.06Q335.97 182.06 335.51 181.66Q335.06 181.25 335.06 180.55Q335.06 179.83 335.51 179.41Q335.97 178.99 336.76 178.99Q337.55 178.99 338.01 179.41Q338.46 179.83 338.46 180.55Q338.46 181.25 338.01 181.66Q337.55 182.06 336.76 182.06" fill="white" fill-opacity="0.7"/>
<path d="M350.92 197.64L348.76 197.64L348.76 188.21L344.92 188.21L344.92 186.24L348.76 186.24L348.76 183.48Q348.76 181.92 349.74 181.02Q350.73 180.12 352.46 180.12L356.32 180.12L356.32 182.09L352.46 182.09Q350.92 182.09 350.92 183.48L350.92 186.24L356.32 186.24L356.32 188.21L350.92 188.21" fill="white" fill-opacity="0.7"/>
<path d="M365.20 197.88Q362.87 197.88 361.44 196.48Q360.02 195.07 360.02 192.60L360.02 189.48Q360.02 187.01 361.44 185.60Q362.87 184.20 365.20 184.20Q366.76 184.20 367.92 184.82Q369.09 185.45 369.74 186.58Q370.38 187.70 370.38 189.24L370.38 191.59L362.13 191.59L362.13 192.84Q362.13 194.30 362.97 195.16Q363.81 196.01 365.20 196.01Q366.40 196.01 367.18 195.54Q367.96 195.07 368.13 194.28L370.29 194.28Q370.07 195.94 368.68 196.91Q367.29 197.88 365.20 197.88M362.13 189.24L362.13 189.91L368.27 189.91L368.27 189.24Q368.27 187.68 367.47 186.83Q366.66 185.98 365.20 185.98Q363.74 185.98 362.93 186.83Q362.13 187.68 362.13 189.24" fill="white" fill-opacity="0.7"/>
<path d="M398.68 197.64L389.32 197.64L389.32 195.67L392.90 195.67L392.90 182.09L389.32 182.09L389.32 180.12L398.68 180.12L398.68 182.09L395.10 182.09L395.10 195.67L398.68 195.67" fill="white" fill-opacity="0.7"/>
<path d="M405.57 197.64L403.41 197.64L403.41 184.44L405.57 184.44L405.57 186.96L405.59 186.96Q405.76 185.64 406.67 184.92Q407.58 184.20 409.10 184.20Q411.09 184.20 412.26 185.42Q413.44 186.65 413.44 188.76L413.44 197.64L411.28 197.64L411.28 189.14Q411.28 187.63 410.52 186.83Q409.77 186.02 408.47 186.02Q407.13 186.02 406.35 186.86Q405.57 187.70 405.57 189.24" fill="white" fill-opacity="0.7"/>
<path d="M423.33 197.83L422.27 197.83Q420.06 197.83 418.85 196.84Q417.64 195.84 417.64 194.02L419.80 194.02Q419.80 194.93 420.45 195.44Q421.10 195.96 422.27 195.96L423.33 195.96Q424.53 195.96 425.19 195.43Q425.85 194.90 425.85 193.94Q425.85 192.24 424.29 192.02L420.64 191.50Q419.30 191.30 418.55 190.38Q417.81 189.46 417.81 187.94Q417.81 186.22 419 185.23Q420.18 184.25 422.27 184.25L423.33 184.25Q425.25 184.25 426.46 185.20Q427.67 186.14 427.77 187.68L425.58 187.68Q425.54 186.98 424.92 186.53Q424.31 186.07 423.33 186.07L422.27 186.07Q421.17 186.07 420.54 186.58Q419.92 187.08 419.92 187.94Q419.92 189.34 421.19 189.53L424.60 190.01Q427.96 190.49 427.96 193.94Q427.96 195.79 426.75 196.81Q425.54 197.83 423.33 197.83" fill="white" fill-opacity="0.7"/>
<path d="M437.18 197.88Q434.90 197.88 433.53 196.52Q432.16 195.17 432.16 192.84L432.16 184.44L434.32 184.44L434.32 192.84Q434.32 194.28 435.09 195.13Q435.86 195.98 437.18 195.98Q438.52 195.98 439.30 195.13Q440.08 194.28 440.08 192.84L440.08 184.44L442.24 184.44L442.24 192.84Q442.24 195.17 440.85 196.52Q439.46 197.88 437.18 197.88" fill="white" fill-opacity="0.7"/>
<path d="M449.25 197.64L447.09 197.64L447.09 184.44L449.25 184.44L449.25 186.96L449.30 186.96Q449.46 185.69 450.38 184.94Q451.29 184.20 452.82 184.20Q454.89 184.20 456 185.44Q457.12 186.67 457.12 188.95L457.12 190.08L454.96 190.08L454.96 188.95Q454.96 186.07 452.15 186.07Q450.74 186.07 449.99 186.89Q449.25 187.70 449.25 189.24" fill="white" fill-opacity="0.7"/>
<path d="M464.85 197.88Q462.81 197.88 461.61 196.74Q460.41 195.60 460.41 193.75Q460.41 192.53 460.96 191.62Q461.51 190.70 462.50 190.19Q463.48 189.67 464.75 189.67L468.83 189.67L468.83 188.64Q468.83 186.07 466.02 186.07Q464.78 186.07 464.01 186.53Q463.24 186.98 463.19 187.80L461.03 187.80Q461.15 186.24 462.48 185.22Q463.82 184.20 466.02 184.20Q468.42 184.20 469.71 185.35Q470.99 186.50 470.99 188.57L470.99 197.64L468.86 197.64L468.86 195.24L468.81 195.24Q468.62 196.46 467.58 197.17Q466.55 197.88 464.85 197.88M465.38 196.06Q466.96 196.06 467.90 195.29Q468.83 194.52 468.83 193.20L468.83 191.35L464.99 191.35Q463.94 191.35 463.28 191.99Q462.62 192.62 462.62 193.68Q462.62 194.78 463.35 195.42Q464.08 196.06 465.38 196.06" fill="white" fill-opacity="0.7"/>
<path d="M477.57 197.64L475.41 197.64L475.41 184.44L477.57 184.44L477.57 186.96L477.59 186.96Q477.76 185.64 478.67 184.92Q479.58 184.20 481.10 184.20Q483.09 184.20 484.26 185.42Q485.44 186.65 485.44 188.76L485.44 197.64L483.28 197.64L483.28 189.14Q483.28 187.63 482.52 186.83Q481.77 186.02 480.47 186.02Q479.13 186.02 478.35 186.86Q477.57 187.70 477.57 189.24" fill="white" fill-opacity="0.7"/>
<path d="M494.99 197.88Q492.59 197.88 491.15 196.54Q489.71 195.19 489.71 192.84L489.71 189.24Q489.71 186.89 491.15 185.54Q492.59 184.20 494.99 184.20Q497.27 184.20 498.68 185.42Q500.08 186.65 500.15 188.76L497.99 188.76Q497.92 187.49 497.13 186.80Q496.34 186.12 494.99 186.12Q493.58 186.12 492.72 186.92Q491.87 187.73 491.87 189.22L491.87 192.84Q491.87 194.33 492.72 195.14Q493.58 195.96 494.99 195.96Q496.34 195.96 497.13 195.26Q497.92 194.57 497.99 193.32L500.15 193.32Q500.08 195.43 498.68 196.66Q497.27 197.88 494.99 197.88" fill="white" fill-opacity="0.7"/>
<path d="M509.20 197.88Q506.87 197.88 505.44 196.48Q504.02 195.07 504.02 192.60L504.02 189.48Q504.02 187.01 505.44 185.60Q506.87 184.20 509.20 184.20Q510.76 184.20 511.92 184.82Q513.09 185.45 513.74 186.58Q514.38 187.70 514.38 189.24L514.38 191.59L506.13 191.59L506.13 192.84Q506.13 194.30 506.97 195.16Q507.81 196.01 509.20 196.01Q510.40 196.01 511.18 195.54Q511.96 195.07 512.13 194.28L514.29 194.28Q514.07 195.94 512.68 196.91Q511.29 197.88 509.20 197.88M506.13 189.24L506.13 189.91L512.27 189.91L512.27 189.24Q512.27 187.68 511.47 186.83Q510.66 185.98 509.20 185.98Q507.74 185.98 506.93 186.83Q506.13 187.68 506.13 189.24" fill="white" fill-opacity="0.7"/>
<path d="M538.19 197.88Q535.79 197.88 534.40 196.54Q533.01 195.19 533.01 192.84L533.01 184.92Q533.01 182.57 534.40 181.22Q535.79 179.88 538.19 179.88Q540.54 179.88 541.94 181.24Q543.33 182.59 543.33 184.92L541.17 184.92Q541.17 183.43 540.39 182.63Q539.61 181.82 538.19 181.82Q536.78 181.82 535.97 182.63Q535.17 183.43 535.17 184.92L535.17 192.84Q535.17 194.33 535.97 195.13Q536.78 195.94 538.19 195.94Q539.61 195.94 540.39 195.13Q541.17 194.33 541.17 192.84L543.33 192.84Q543.33 195.17 541.94 196.52Q540.54 197.88 538.19 197.88" fill="white" fill-opacity="0.7"/>
<path d="M552.40 197.83Q550.02 197.83 548.62 196.44Q547.22 195.05 547.22 192.55L547.22 189.53Q547.22 187.01 548.61 185.63Q550 184.25 552.40 184.25Q554.80 184.25 556.19 185.63Q557.58 187.01 557.58 189.53L557.58 192.55Q557.58 195.05 556.18 196.44Q554.78 197.83 552.40 197.83M552.40 195.91Q553.82 195.91 554.62 195.12Q555.42 194.33 555.42 192.79L555.42 189.29Q555.42 187.75 554.62 186.96Q553.82 186.17 552.40 186.17Q551.01 186.17 550.19 186.96Q549.38 187.75 549.38 189.29L549.38 192.79Q549.38 194.33 550.19 195.12Q551.01 195.91 552.40 195.91" fill="white" fill-opacity="0.7"/>
<path d="M563.06 197.64L561.04 197.64L561.04 184.44L562.91 184.44L562.91 186.19L562.96 186.19Q563.08 185.30 563.67 184.75Q564.26 184.20 565.17 184.20Q566.03 184.20 566.63 184.70Q567.23 185.21 567.50 186.07L567.52 186.07Q567.69 185.21 568.28 184.70Q568.86 184.20 569.78 184.20Q571.05 184.20 571.80 185.15Q572.56 186.10 572.56 187.61L572.56 197.64L570.54 197.64L570.54 187.58Q570.54 186.79 570.16 186.32Q569.78 185.86 569.10 185.86Q568.46 185.86 568.07 186.31Q567.69 186.77 567.69 187.56L567.69 197.64L565.91 197.64L565.91 187.58Q565.91 186.79 565.53 186.32Q565.14 185.86 564.50 185.86Q563.82 185.86 563.44 186.31Q563.06 186.77 563.06 187.56" fill="white" fill-opacity="0.7"/>
<path d="M578.37 201.96L576.21 201.96L576.21 184.44L578.37 184.44L578.37 186.96L578.39 186.96Q578.56 185.66 579.52 184.93Q580.48 184.20 581.97 184.20Q583.96 184.20 585.14 185.51Q586.31 186.82 586.31 189.10L586.31 192.96Q586.31 195.24 585.14 196.56Q583.96 197.88 581.97 197.88Q580.48 197.88 579.52 197.14Q578.56 196.39 578.39 195.12L578.32 195.12L578.37 198.12L578.37 201.96M581.25 196.01Q582.62 196.01 583.38 195.29Q584.15 194.57 584.15 192.96L584.15 189.12Q584.15 187.49 583.38 186.78Q582.62 186.07 581.25 186.07Q579.93 186.07 579.15 186.91Q578.37 187.75 578.37 189.24L578.37 192.84Q578.37 194.33 579.15 195.17Q579.93 196.01 581.25 196.01" fill="white" fill-opacity="0.7"/>
<path d="M594.45 197.88Q592.41 197.88 591.21 196.74Q590.01 195.60 590.01 193.75Q590.01 192.53 590.56 191.62Q591.11 190.70 592.10 190.19Q593.08 189.67 594.35 189.67L598.43 189.67L598.43 188.64Q598.43 186.07 595.62 186.07Q594.38 186.07 593.61 186.53Q592.84 186.98 592.79 187.80L590.63 187.80Q590.75 186.24 592.08 185.22Q593.42 184.20 595.62 184.20Q598.02 184.20 599.31 185.35Q600.59 186.50 600.59 188.57L600.59 197.64L598.46 197.64L598.46 195.24L598.41 195.24Q598.22 196.46 597.18 197.17Q596.15 197.88 594.45 197.88M594.98 196.06Q596.56 196.06 597.50 195.29Q598.43 194.52 598.43 193.20L598.43 191.35L594.59 191.35Q593.54 191.35 592.88 191.99Q592.22 192.62 592.22 193.68Q592.22 194.78 592.95 195.42Q593.68 196.06 594.98 196.06" fill="white" fill-opacity="0.7"/>
<path d="M607.17 197.64L605.01 197.64L605.01 184.44L607.17 184.44L607.17 186.96L607.19 186.96Q607.36 185.64 608.27 184.92Q609.18 184.20 610.70 184.20Q612.69 184.20 613.86 185.42Q615.04 186.65 615.04 188.76L615.04 197.64L612.88 197.64L612.88 189.14Q612.88 187.63 612.12 186.83Q611.37 186.02 610.07 186.02Q608.73 186.02 607.95 186.86Q607.17 187.70 607.17 189.24" fill="white" fill-opacity="0.7"/>
<path d="M623.73 201.96L621.47 201.96L623.42 196.82L618.50 184.44L620.82 184.44L623.94 192.60Q624.14 193.08 624.30 193.61Q624.47 194.14 624.54 194.52Q624.62 194.14 624.78 193.61Q624.95 193.08 625.12 192.60L628.02 184.44L630.30 184.44" fill="white" fill-opacity="0.7"/>
<path d="M659.20 197.64L649.12 197.64L649.12 180.12L651.28 180.12L651.28 195.67L659.20 195.67" fill="white" fill-opacity="0.7"/>
<path d="M672.76 197.64L668.92 197.64Q667.29 197.64 666.30 196.69Q665.32 195.74 665.32 194.16L665.32 186.41L661.53 186.41L661.53 184.44L665.32 184.44L665.32 180.72L667.48 180.72L667.48 184.44L672.88 184.44L672.88 186.41L667.48 186.41L667.48 194.16Q667.48 194.83 667.88 195.25Q668.27 195.67 668.92 195.67L672.76 195.67" fill="white" fill-opacity="0.7"/>
<path d="M681.23 197.88Q679.26 197.88 678.08 196.56Q676.89 195.24 676.89 192.98L676.89 189.12Q676.89 186.84 678.06 185.52Q679.24 184.20 681.23 184.20Q682.72 184.20 683.69 184.94Q684.66 185.69 684.86 186.96L684.88 186.96L684.83 183.96L684.83 180.12L686.99 180.12L686.99 197.64L684.83 197.64L684.83 195.12L684.81 195.12Q684.64 196.42 683.68 197.15Q682.72 197.88 681.23 197.88M681.95 196.01Q683.30 196.01 684.06 195.17Q684.83 194.33 684.83 192.84L684.83 189.24Q684.83 187.75 684.06 186.91Q683.30 186.07 681.95 186.07Q680.58 186.07 679.82 186.78Q679.05 187.49 679.05 189.12L679.05 192.96Q679.05 194.57 679.82 195.29Q680.58 196.01 681.95 196.01" fill="white" fill-opacity="0.7"/>
<path d="M707.01 197.64L704.80 197.64L709.36 180.12L712.26 180.12L716.80 197.64L714.62 197.64L713.46 192.98L708.16 192.98L707.01 197.64M709.94 185.74L708.59 191.16L713.01 191.16L711.66 185.76Q711.28 184.22 711.06 183.19Q710.85 182.16 710.80 181.85Q710.75 182.16 710.54 183.19Q710.32 184.22 709.94 185.74" fill="white" fill-opacity="0.7"/>
<path d="M722.37 197.64L720.21 197.64L720.21 180.12L725.85 180.12Q728.30 180.12 729.75 181.52Q731.20 182.93 731.20 185.28Q731.20 187.63 729.75 189.04Q728.30 190.44 725.85 190.44L722.37 190.44L722.37 197.64M722.37 182.06L722.37 188.50L725.85 188.50Q727.26 188.50 728.12 187.62Q728.97 186.74 728.97 185.28Q728.97 183.79 728.12 182.93Q727.26 182.06 725.85 182.06" fill="white" fill-opacity="0.7"/>
<path d="M744.28 197.64L734.92 197.64L734.92 195.67L738.50 195.67L738.50 182.09L734.92 182.09L734.92 180.12L744.28 180.12L744.28 182.09L740.70 182.09L740.70 195.67L744.28 195.67" fill="white" fill-opacity="0.7"/>
<path d="M754.53 197.83L753.47 197.83Q751.26 197.83 750.05 196.84Q748.84 195.84 748.84 194.02L751 194.02Q751 194.93 751.65 195.44Q752.30 195.96 753.47 195.96L754.53 195.96Q755.73 195.96 756.39 195.43Q757.05 194.90 757.05 193.94Q757.05 192.24 755.49 192.02L751.84 191.50Q750.50 191.30 749.75 190.38Q749.01 189.46 749.01 187.94Q749.01 186.22 750.20 185.23Q751.38 184.25 753.47 184.25L754.53 184.25Q756.45 184.25 757.66 185.20Q758.87 186.14 758.97 187.68L756.78 187.68Q756.74 186.98 756.12 186.53Q755.51 186.07 754.53 186.07L753.47 186.07Q752.37 186.07 751.74 186.58Q751.12 187.08 751.12 187.94Q751.12 189.34 752.39 189.53L755.80 190.01Q759.16 190.49 759.16 193.94Q759.16 195.79 757.95 196.81Q756.74 197.83 754.53 197.83" fill="white" fill-opacity="0.7"/>
<path d="M76.11 136.06L66.42 136.06L84.56 65.98L97.14 65.98L115.18 136.06L105.49 136.06L101.07 117.82L80.53 117.82L76.11 136.06M87.54 88.92L82.45 109.95L99.15 109.95L94.16 89.02Q92.72 83.26 91.86 79.23Q90.99 75.20 90.80 73.76Q90.61 75.20 89.74 79.23Q88.88 83.26 87.54 88.92M137.55 136.06L128.05 136.06L128.05 65.98L150.80 65.98Q157.52 65.98 162.42 68.57Q167.31 71.16 170 75.82Q172.69 80.48 172.69 86.91Q172.69 93.24 170 97.90Q167.31 102.56 162.37 105.15Q157.42 107.74 150.80 107.74L137.55 107.74L137.55 136.06M137.55 74.43L137.55 99.29L150.80 99.29Q156.37 99.29 159.63 95.88Q162.90 92.48 162.90 86.91Q162.90 81.24 159.63 77.84Q156.37 74.43 150.80 74.43L137.55 74.43M225.10 136.06L186.90 136.06L186.90 127.42L201.20 127.42L201.20 74.62L186.90 74.62L186.90 65.98L225.10 65.98L225.10 74.62L210.80 74.62L210.80 127.42L225.10 127.42L225.10 136.06M263.98 137.02Q253.62 137.02 247.47 131.60Q241.33 126.17 241.33 116.67L250.83 116.67Q250.83 122.24 254.38 125.40Q257.94 128.57 263.98 128.57Q269.74 128.57 273.15 125.36Q276.56 122.14 276.56 116.76Q276.56 112.73 274.35 109.71Q272.14 106.68 268.11 105.63L257.74 102.84Q250.93 100.92 246.94 95.88Q242.96 90.84 242.96 83.93Q242.96 78.27 245.50 74Q248.05 69.72 252.66 67.37Q257.26 65.02 263.31 65.02Q269.46 65.02 274.11 67.37Q278.77 69.72 281.36 73.95Q283.95 78.17 283.95 83.74L274.54 83.74Q274.54 79.13 271.42 76.25Q268.30 73.37 263.31 73.37Q258.32 73.37 255.30 76.25Q252.27 79.13 252.27 83.74Q252.27 87.48 254.29 90.03Q256.30 92.57 259.95 93.63L270.61 96.51Q277.81 98.43 281.84 103.85Q285.87 109.28 285.87 116.76Q285.87 122.91 283.18 127.47Q280.50 132.03 275.55 134.52Q270.61 137.02 263.98 137.02M342.51 136.06L301.71 136.06L301.71 65.98L342.51 65.98L342.51 74.52L311.12 74.52L311.12 95.36L339.15 95.36L339.15 103.61L311.12 103.61L311.12 127.52L342.51 127.52L342.51 136.06M383.60 136.06L374.10 136.06L374.10 74.62L355.09 74.62L355.09 65.98L402.51 65.98L402.51 74.62L383.60 74.62L383.60 136.06M436.40 137.02Q426.51 137.02 421.18 131.55Q415.86 126.08 415.86 116.67L415.86 65.98L425.36 65.98L425.36 116.67Q425.36 122.24 428.10 125.40Q430.83 128.57 436.40 128.57Q441.87 128.57 444.70 125.40Q447.54 122.24 447.54 116.67L447.54 65.98L457.04 65.98L457.04 116.67Q457.04 126.17 451.71 131.60Q446.38 137.02 436.40 137.02M551.98 137.02Q542.29 137.02 536.58 131.60Q530.86 126.17 530.86 116.67L530.86 85.28Q530.86 75.87 536.58 70.44Q542.29 65.02 551.98 65.02Q561.58 65.02 567.30 70.49Q573.01 75.96 573.01 85.28L563.50 85.28Q563.50 79.61 560.43 76.54Q557.36 73.47 551.98 73.47Q546.51 73.47 543.44 76.54Q540.37 79.61 540.37 85.28L540.37 116.67Q540.37 122.43 543.44 125.50Q546.51 128.57 551.98 128.57Q557.36 128.57 560.43 125.50Q563.50 122.43 563.50 116.67L563.50 107.55L549.87 107.55L549.87 99.10L573.01 99.10L573.01 116.67Q573.01 126.08 567.30 131.55Q561.58 137.02 551.98 137.02M609.20 137.02Q599.60 137.02 594.03 131.45Q588.46 125.88 588.46 115.71L588.46 86.24Q588.46 76.16 594.03 70.59Q599.60 65.02 609.20 65.02Q618.80 65.02 624.37 70.54Q629.94 76.06 629.94 86.24L629.94 115.71Q629.94 125.88 624.37 131.45Q618.80 137.02 609.20 137.02M609.20 128.57Q614.58 128.57 617.50 125.50Q620.43 122.43 620.43 116.67L620.43 85.28Q620.43 79.61 617.55 76.54Q614.67 73.47 609.20 73.47Q603.73 73.47 600.85 76.54Q597.97 79.61 597.97 85.28L597.97 116.67Q597.97 122.43 600.90 125.50Q603.82 128.57 609.20 128.57M673.14 136.06L660.37 136.06L642.42 65.98L652.21 65.98L663.82 113.21Q664.98 117.72 665.79 121.90Q666.61 126.08 666.99 128.28Q667.28 126.08 668.19 121.85Q669.10 117.63 670.16 113.12L681.39 65.98L691.18 65.98L673.14 136.06M801.10 136.06L762.90 136.06L762.90 127.42L777.20 127.42L777.20 74.62L762.90 74.62L762.90 65.98L801.10 65.98L801.10 74.62L786.80 74.62L786.80 127.42L801.10 127.42L801.10 136.06M840.37 137.02Q830.67 137.02 824.96 131.60Q819.25 126.17 819.25 116.67L819.25 85.28Q819.25 75.87 824.96 70.44Q830.67 65.02 840.37 65.02Q849.97 65.02 855.68 70.49Q861.39 75.96 861.39 85.28L851.89 85.28Q851.89 79.61 848.82 76.54Q845.74 73.47 840.37 73.47Q834.90 73.47 831.82 76.54Q828.75 79.61 828.75 85.28L828.75 116.67Q828.75 122.43 831.82 125.50Q834.90 128.57 840.37 128.57Q845.74 128.57 848.82 125.50Q851.89 122.43 851.89 116.67L861.39 116.67Q861.39 126.08 855.68 131.55Q849.97 137.02 840.37 137.02M916.30 136.06L878.10 136.06L878.10 127.42L892.40 127.42L892.40 74.62L878.10 74.62L878.10 65.98L916.30 65.98L916.30 74.62LNaN 74.62LNaN 127.42L916.30 127.42L916.30 136.06M955.57 137.02Q945.87 137.02 940.16 131.60Q934.45 126.17 934.45 116.67L934.45 85.28Q934.45 75.87 940.16 70.44Q945.87 65.02 955.57 65.02Q965.17 65.02 970.88 70.49Q976.59 75.96 976.59 85.28L967.09 85.28Q967.09 79.61 964.02 76.54Q960.94 73.47 955.57 73.47Q950.10 73.47 947.02 76.54Q943.95 79.61 943.95 85.28L943.95 116.67Q943.95 122.43 947.02 125.50Q950.10 128.57 955.57 128.57Q960.94 128.57 964.02 125.50Q967.09 122.43 967.09 116.67L976.59 116.67Q976.59 126.08 970.88 131.55Q965.17 137.02 955.57 137.02M1031.50 136.06L993.30 136.06L993.30 127.42L1007.60 127.42L1007.60 74.62L993.30 74.62L993.30 65.98L1031.50 65.98L1031.50 74.62L1017.20 74.62L1017.20 127.42L1031.50 127.42L1031.50 136.06M1059.15 136.06L1049.65 136.06L1049.65 65.98L1072.40 65.98Q1079.12 65.98 1084.02 68.57Q1088.91 71.16 1091.60 75.82Q1094.29 80.48 1094.29 86.91Q1094.29 93.24 1091.60 97.90Q1088.91 102.56 1083.97 105.15Q1079.02 107.74 1072.40 107.74L1059.15 107.74L1059.15 136.06M1059.15 74.43L1059.15 99.29L1072.40 99.29Q1077.97 99.29 1081.23 95.88Q1084.50 92.48 1084.50 86.91Q1084.50 81.24 1081.23 77.84Q1077.97 74.43 1072.40 74.43L1059.15 74.43M1116.75 136.06L1107.34 136.06L1107.34 65.98L1129.04 65.98Q1135.47 65.98 1140.27 68.52Q1145.07 71.07 1147.76 75.63Q1150.45 80.19 1150.45 86.33Q1150.45 93.44 1146.85 98.52Q1143.25 103.61 1137.30 105.72L1151.41 136.06L1140.94 136.06L1127.60 106.78L1116.75 106.78L1116.75 136.06M1116.75 74.43L1116.75 98.33L1129.04 98.33Q1134.42 98.33 1137.54 95.07Q1140.66 91.80 1140.66 86.43Q1140.66 80.96 1137.49 77.69Q1134.32 74.43 1129.04 74.43L1116.75 74.43M1185.20 137.02Q1175.31 137.02 1169.98 131.55Q1164.66 126.08 1164.66 116.67L1164.66 65.98L1174.16 65.98L1174.16 116.67Q1174.16 122.24 1176.90 125.40Q1179.63 128.57 1185.20 128.57Q1190.67 128.57 1193.50 125.40Q1196.34 122.24 1196.34 116.67L1196.34 65.98L1205.84 65.98L1205.84 116.67Q1205.84 126.17 1200.51 131.60Q1195.18 137.02 1185.20 137.02M1266.99 136.06L1226.29 136.06L1226.29 65.98L1235.79 65.98L1235.79 127.42L1266.99 127.42L1266.99 136.06M1319.50 136.06L1281.30 136.06L1281.30 127.42L1295.60 127.42L1295.60 74.62L1281.30 74.62L1281.30 65.98L1319.50 65.98L1319.50 74.62L1305.20 74.62L1305.20 127.42L1319.50 127.42L1319.50 136.06M1347.44 136.06L1337.94 136.06L1337.94 65.98L1379.79 65.98L1379.79 74.72L1347.25 74.72L1347.25 96.80L1377.30 96.80L1377.30 105.44L1347.44 105.44L1347.44 136.06M1436.91 136.06L1396.11 136.06L1396.11 65.98L1436.91 65.98L1436.91 74.52L1405.52 74.52L1405.52 95.36L1433.55 95.36L1433.55 103.61L1405.52 103.61L1405.52 127.52L1436.91 127.52" fill="url(#paint2_linear_0_1)"/>
<g id="Group 1">
<rect id="Rectangle 1" x="26" y="168" width="12" height="184" rx="5" fill="url(#paint3_linear_0_1)" fill-opacity="0.9"/>
</g>
<g id="Group 1_2">
<rect id="Rectangle 2" x="26" y="38" width="12" height="119" rx="5" fill="url(#paint4_linear_0_1)" fill-opacity="0.9"/>
</g>
<ellipse id="Ellipse 1" cx="148.5" cy="573" rx="215.5" ry="214" fill="url(#paint5_linear_0_1)" fill-opacity="0.4"/>
<rect id="Rectangle 3" x="1229" y="48" width="300" height="300" rx="25" fill="#FFFBFB" fill-opacity="0.9"/>
<g id="placeholder-logo"><g transform="translate(1229,48) translate(0.0,60.0) scale(1.2000)"><g fill="#666666">
  <path d="m88.05,27.65c-3.15,4 -3.2,51.2 -0.05,54.35c2.75,2.75 71.7,3.15 74.45,0.45c2.85,-2.9 2.3,-53.85 -0.65,-55.9c-1.95,-1.35 -7.15,-1.55 -36.95,-1.55l-34.7,0l-2.1,2.65zm69.45,3.35c0.65,0 1,8.6 1,23.75l0,23.75l-33,0l-33,0l-0.25,-23c-0.15,-12.6 -0.1,-23.45 0.15,-24.1c0.35,-0.85 8.9,-1.05 32.25,-0.75c17.55,0.2 32.3,0.35 32.85,0.35z"/>
  <path d="m99.15,37.3c-6.85,7.35 4.25,17.35 11.4,10.25c1.35,-1.35 2.45,-3.65 2.45,-5.05c0,-6.45 -9.35,-9.95 -13.85,-5.2z"/>
  <path d="m135,42.5c-0.7,0.85 -5.25,5.15 -10.1,9.6l-8.85,8.1l-3.2,-3.2l-3.15,-3.15l-6.35,6.3c-5.55,5.5 -6.35,6.75 -6.35,10.05l0,3.8l28.5,0l28.5,0l0,-8.6l0,-8.55l-8.15,-7.7c-9.35,-8.85 -9.15,-8.7 -10.85,-6.65zm7.25,15.2c0.95,0.9 1.75,2.9 1.75,4.45c6.35,-5.05 4.75,-7.15 4.9,-11.55c0.95,0 0,0 0,0l-6.65,7.1z"/>
  <path d="m53.65,110.75c0.1,4.8 0.45,8.65 0.75,8.5c0.35,-0.15 1.3,-0.25 2.1,-0.25c1.1,0 1.5,-1.2 1.5,-4.75l0,-4.75l3.25,5c4.9,7.5 6.2,6.75 6.55,-3.75c0.25,-8.15 0.15,-8.75 -1.7,-8.75c-1.65,0 -2.05,0.8 -2.3,4.75l-0.3,4.75l-2.8,-4.75c-4.85,-8.25 -7.25,-6.9 -7.05,4z"/>
  <path d="m91,108.9c0,9.65 0.3,10.1 6.1,10.1c5.8,0 7.15,-2.65 1.65,-3.2l-3.25,-0.3l-0.3,-6.75c-0.25,-5.95 -0.55,-6.75 -2.25,-6.75c-1.75,0 -1.95,0.7 -1.95,6.9z"/>
  <path d="m151,102.45c0,0.25 1,2.15 2.25,4.2c1.2,2.1 2.45,5.8 2.75,8.25c0.65,5.9 4,6.95 4,1.25c0.05,-2.1 1.25,-5.85 2.95,-8.9l2.9,-5.25l-2.5,0c-1.8,0 -2.8,0.85 -3.75,3.1l-1.3,3.05l-1.25,-3.05c-1.1,-2.6 -6.05,-4.8 -6.05,-2.65z"/>
  <path d="m191,107.45c0,9.05 3.4,8.85 4.25,-0.2c0.45,-5 0.35,-5.25 -1.9,-5.25c-2.2,0 -2.35,0.4 -2.35,5.45z"/>
  <path d="m180.8,104.75c-1.3,5.35 0.65,13.6 3.45,14.35c2.3,0.6 2.75,0.4 2.75,-1.2c0,-1.05 -0.45,-1.9 -1,-1.9c-0.55,0 -1,-1.6 -1,-3.5c0,-1.95 0.45,-3.5 1,-3.5c0.55,0 1,-0.7 1,-1.5c0,-0.85 -0.45,-1.5 -1,-1.5c-0.55,0 -1,-0.7 -1,-1.5c0,-2.1 -3.65,-1.9 -4.2,0.25z"/>
  <path d="m71.55,106.55c-2.2,2.25 -2.05,9.7 0.3,11.8c4.5,4.1 10.15,0.75 10.15,-6.1c0,-4.85 -2,-7.25 -6,-7.25c-1.55,0 -3.55,0.7 -4.45,1.55zm6.25,5.8c0.25,3.05 0,3.65 -1.6,3.65c-2.3,0 -3.25,-2.65 -2.05,-5.85c1.25,-3.35 3.3,-2.1 3.65,2.2z"/>
  <path d="m105.75,106.1c-2.5,1.45 -2.45,9.95 0.1,12.25c4.3,3.9 10.15,0.35 10.15,-6.2c0,-6 -5.15,-9.05 -10.25,-6.05zm6.05,6.25c0.25,3.05 0,3.65 -1.6,3.65c-2.3,0 -3.25,-2.65 -2.05,-5.85c1.25,-3.35 3.3,-2.1 3.65,2.2z"/>
  <path d="m119.2,106.2c-3.8,3.8 -0.4,12.55 4.4,11.35c1.9,-0.45 2.45,-0.3 2.15,0.65c-0.25,0.7 -1.55,1.2 -2.85,1.1c-4.05,-0.3 -5.35,0.45 -3.85,2.25c0.85,1.05 2.6,1.45 5.35,1.25l4.1,-0.3l0.3,-8.75l0.3,-8.75l-4.35,0c-2.4,0 -4.9,0.55 -5.55,1.2zm6.6,4.45c0.4,2.85 -2.15,4.85 -3.75,2.95c-0.9,-1.1 -0.9,-2 -0.05,-3.6c1.35,-2.5 3.4,-2.15 3.8,0.65z"/>
  <path d="m133.55,106.55c-2.2,2.25 -2.05,9.7 0.3,11.8c4.5,4.1 10.15,0.75 10.15,-6.1c0,-4.85 -2,-7.25 -6,-7.25c-1.55,0 -3.55,0.7 -4.45,1.55zm6.25,5.8c0.25,3.05 0,3.65 -1.6,3.65c-2.3,0 -3.25,-2.65 -2.05,-5.85c1.25,-3.35 3.3,-2.1 3.65,2.2z"/>
  <path d="m167.65,106.85c-3.9,4.3 -0.75,13.15 4.7,13.15c2.4,0 5.65,-2.75 5.65,-4.85c0,-1.4 -2.65,-1.55 -3.5,-0.15c-0.95,1.55 -4.5,1.15 -4.5,-0.5c0,-1.1 1.1,-1.5 4,-1.5c3.15,0 4,-0.35 4,-1.8c0,-5.3 -6.85,-8.25 -10.35,-4.35z"/>
  <path d="m191,117.5c0,2.15 0.4,2.6 2.25,2.3c1.5,-0.2 2.25,-1 2.25,-2.3c0,-1.3 -0.75,-2.1 -2.25,-2.3c-1.85,-0.3 -2.25,0.15 -2.25,2.3z"/>
 </g></g></g>
</g>
<defs>
<linearGradient id="paint0_linear_0_1" x1="0" y1="198" x2="1584" y2="198" gradientUnits="userSpaceOnUse">
<stop stop-color="#3D052C"/>
<stop offset="1"/>
</linearGradient>
<linearGradient id="paint1_linear_0_1" x1="323" y1="-224" x2="323" y2="352" gradientUnits="userSpaceOnUse">
<stop stop-color="#28F6F2" stop-opacity="0.4"/>
<stop offset="1" stop-color="#17908E" stop-opacity="0.7"/>
</linearGradient>
<linearGradient id="paint2_linear_0_1" x1="148.5" y1="38" x2="148.5" y2="140" gradientUnits="userSpaceOnUse">
<stop stop-color="white"/>
<stop offset="1" stop-color="#999999"/>
</linearGradient>
<linearGradient id="paint3_linear_0_1" x1="38" y1="260" x2="26" y2="260" gradientUnits="userSpaceOnUse">
<stop stop-color="#D9D9D9"/>
<stop offset="1" stop-color="#737373"/>
</linearGradient>
<linearGradient id="paint4_linear_0_1" x1="38" y1="97.5" x2="26" y2="97.5" gradientUnits="userSpaceOnUse">
<stop stop-color="#D9D9D9"/>
<stop offset="1" stop-color="#737373"/>
</linearGradient>
<linearGradient id="paint5_linear_0_1" x1="27.5" y1="434.5" x2="148.5" y2="787" gradientUnits="userSpaceOnUse">
<stop stop-color="#2E21BC"/>
<stop offset="1" stop-color="#150F56"/>
</linearGradient>
<clipPath id="clip0_0_1">
<rect width="1584" height="396" fill="white"/>
</clipPath>
</defs>
</svg>
